<svg id="Calque_1" data-name="Calque 1" xmlns="http://www.w3.org/2000/svg" viewBox="0 0 249.61 48.07"><defs><style>.cls-1{fill:#fefefe;}.cls-2{fill:#fff;}.cls-3{fill:#f78316;}.cls-4{fill:#f8982d;}.cls-5{fill:#f0b324;}.cls-6{fill:#146fd0;}.cls-7{fill:#e06741;}.cls-8{fill:#1aa187;}.cls-9{fill:#1bb075;}.cls-10{fill:#1082b1;}.cls-11{fill:#f39224;}.cls-12{fill:#ea6033;}.cls-13{fill:#c8325b;}.cls-14{fill:#0ea95f;}.cls-15{fill:#1078b7;}.cls-16{fill:#da3a50;}.cls-17{fill:#2b40bb;}.cls-18{fill:#ef8321;}.cls-19{fill:#7e4486;}.cls-20{fill:#ed8922;}.cls-21{fill:#9f3b77;}.cls-22{fill:#1176d2;}.cls-23{fill:#ac3770;}.cls-24{fill:#45b878;}.cls-25{fill:#892f7b;}.cls-26{fill:#57308e;}.cls-27{fill:#bc2e68;}.cls-28{fill:#c23266;}.cls-29{fill:#1168b3;}.cls-30{fill:#913f7d;}.cls-31{fill:#af2e6d;}.cls-32{fill:#b8346b;}.cls-33{fill:#874282;}.cls-34{fill:#c82e63;}.cls-35{fill:#1757b6;}.cls-36{fill:#a32e71;}.cls-37{fill:#962e76;}.cls-38{fill:#7d2f80;}.cls-39{fill:#702f84;}.cls-40{fill:#632f89;}.cls-41{fill:#0e75ab;}.cls-42{fill:#16a95e;}</style></defs><path class="cls-1" d="M397.28,401.9c1.94,6,1.51,6.35-6.95,5.64l-3.05.35a4.22,4.22,0,0,1,2.61-1.18c1.48-.15,3,0,4.47-.11,2.18-.16,3-1.18,2.11-3.29a7.86,7.86,0,0,0-1-.83c-2.07-.63-4.38.07-6.44-.57a4.54,4.54,0,0,1-.61-.24,4.62,4.62,0,0,1-1.14-.76C390.55,401.92,394.07,400.29,397.28,401.9Z" transform="translate(-387.28 -359.96)"/><path class="cls-1" d="M410,401.81c1.55,1.69,1.16,3.49.29,5.31-3.3.94-6.58,1.35-9.82-.21a9,9,0,0,1,.18-5.1A17.26,17.26,0,0,1,410,401.81Z" transform="translate(-387.28 -359.96)"/><path class="cls-1" d="M400.17,387.13c-.05-3.39,1.9-3.09,4.1-3.12,7.39-.12,7.39-.15,6.07,4.92-1.67,2.44-4,.92-6.11,1.08C401.86,390.49,400.22,390.46,400.17,387.13Z" transform="translate(-387.28 -359.96)"/><path class="cls-1" d="M410.71,398.05c-.4,1.52-2.19.86-3.45.75h-3.95c-3.19.87-3.07-1.17-3.05-3.32,0-4.27,3.08-2.18,5-2.45l4,0C411.87,394.08,411.15,396.37,410.71,398.05Z" transform="translate(-387.28 -359.96)"/><path class="cls-1" d="M414.24,398.8c-1-2.15-3-4.47,1-5.74h6c.93,0,2.14-.79,2.39.93.46,2.72,1.4,5.77-3.39,4.82Z" transform="translate(-387.28 -359.96)"/><path class="cls-1" d="M423.28,407.07c-1.6,1.28-3.36.56-5.08.43h-3.95c-2.09-1.61-.94-3.62-.69-5.52.86-1.13,1.73-.78,2.62,0l0,0,1,.11h4l1-.06C425.57,403.08,423.79,405.21,423.28,407.07Z" transform="translate(-387.28 -359.96)"/><path class="cls-1" d="M426.34,395.94c0-.66,0-1.32,0-2,.46-1.91,1.85-.84,2.88-.91s1.92-.17,2.88-.18c5.46,0,5.52.07,4.13,5.73a14.26,14.26,0,0,1-6,.2h-2C425.35,399.33,426.26,397.36,426.34,395.94Z" transform="translate(-387.28 -359.96)"/><path class="cls-1" d="M427.67,381.45a3.14,3.14,0,0,1-1.27-.52v-4.88a1.39,1.39,0,0,1,1.13-.48c2.93-1,5.89-.55,8.86.26a5,5,0,0,1,0,5.3h0c-2.92.81-5.82,1.26-8.7.31Z" transform="translate(-387.28 -359.96)"/><path class="cls-1" d="M436.21,384.36c1.06,2.12,1.73,5.35-.83,5.48-2.84.15-7.13,3.25-9.08-1.9-.57-2.64-.17-4.4,3.21-4C431.73,384.26,434,384.25,436.21,384.36Z" transform="translate(-387.28 -359.96)"/><path class="cls-1" d="M436.77,405.31h0a3.62,3.62,0,0,1-.51,1.69c-2.86,1.47-5.86.57-8.81.49-2.31-1.59-1.25-3.68-.85-5.68,2.22-.93,4.44-.62,6.67-.08C437.55,401.17,437.41,403.1,436.77,405.31Z" transform="translate(-387.28 -359.96)"/><path class="cls-1" d="M479.9,402.92c.13-13.28,0-26.57.15-39.85.06-4.12-2.6-2.94-4.65-3s-4.44-.92-4.25,2.85c.27,5.24.07,10.5.07,16-8.39-4.84-16.81-4.24-21.6,1.28-5.05,5.84-5.17,17-.24,22.65s13.51,6.47,21.6,1.67c.54,5.14,4.43,3.2,7.11,3.11C481.42,407.5,479.88,404.54,479.9,402.92Zm-17.08-2c-4.85-.08-8.39-3.87-8.47-9.08s3.67-9.59,8.52-9.68,8.57,4,8.57,9.52C471.44,397.35,468,401,462.82,400.91Z" transform="translate(-387.28 -359.96)"/><path class="cls-1" d="M504.61,399c-2.56,3.23-6.94,2.58-10.46.27-1.85-1.22-3.53-3.08-2.77-5.33.64-1.9,2.9-.76,4.4-.82a65.84,65.84,0,0,1,11.41.05c5.29.73,6.79-1.5,6.09-6.23-2.13-7.95-6.85-11.58-15-11.52-7.84.05-13.73,4.6-15.53,12-2,8.07,1.76,15.9,9,18.82s18.5,2.26,22.52-7.34C511.05,396.61,508.35,394.28,504.61,399Zm-9-16.78A10.85,10.85,0,0,1,500,382c2.55.24,4.77,1.82,4.58,4.26s-2.92.94-4.49,1.31a11.21,11.21,0,0,1-2.46,0,5.61,5.61,0,0,1-1.48,0c-1.58-.49-4.28,1.24-4.64-1S493.6,382.92,495.64,382.23ZM545.31,398c-2.39-1.2-4.89-3.79-7.88.36-3.37,4.67-11.54,2.94-13.56-2.25-.82-2.12-.52-3.05,2-3,4.16.1,8.31,0,12.47,0,7.53,0,9.23-2.76,6.09-9.87a12.21,12.21,0,0,0-8.92-7.22c-9.67-2.25-16.43,1.36-20.56,10.93a27.76,27.76,0,0,0,1,12c.9,1.18,1.72,2.44,2.72,3.54,6.59,7.25,21,7,26.09-.48C545.43,400.9,547.67,399.15,545.31,398ZM527.44,382.4a8.39,8.39,0,0,1,5.3-.41c2.26.48,4.34,1.86,4.12,4.16-.25,2.58-2.86,1-4.38,1.37a8,8,0,0,1-2,0,14.29,14.29,0,0,1-2.45,0c-1.5-.26-4,1-4.28-1S525.58,383.25,527.44,382.4Z" transform="translate(-387.28 -359.96)"/><path class="cls-1" d="M576.2,403.76c0,2.27.21,4.16-3.21,4-7-.25-14,0-20.93-.13-1.64,0-4.3,1.15-4.75-1.05-.53-2.52-1.26-5.44,1.24-7.88,5.1-4.95,10-10.12,15.51-15.77-4.75,0-9.13-.15-13.49.06-2.63.13-3.14-1.08-2.84-3.23.26-1.87-1.1-4.59,2.7-4.53,7.31.11,14.62,0,21.93.05,1.22,0,3.12-.57,3.28,1.26.23,2.68.9,5.4-1.6,7.84-5,4.87-9.6,10.1-14.67,15.49,4.45,0,9,.23,13.61-.07C576.36,399.61,576.23,401.43,576.2,403.76Z" transform="translate(-387.28 -359.96)"/><path class="cls-1" d="M607.65,398c-2-1.11-4.5-4.3-7.43-.08-3.19,4.59-10.88,3.83-13.54-.87-1.22-2.15-1.82-4.16,2-4,2.65.13,5.31,0,8,0a25.24,25.24,0,0,0,3.48,0c2.51-.34,6.12,1.43,7.33-1.11,1.48-3.1.49-6.88-1.38-10a13.44,13.44,0,0,0-3.29-3.64c-6.55-5-17.78-3.4-22.82,3.2-5.18,6.79-3.79,17.54,2.93,22.78s19,4.41,23.62-1.72C607.4,401.44,610.41,399.59,607.65,398Zm-17.19-15.91a11,11,0,0,1,4.42-.11c2.22.39,4.49,1.57,4.21,4.06s-2.86,1.15-4.43,1.46a12.71,12.71,0,0,1-2.47,0,5.69,5.69,0,0,1-1.49,0c-1.55-.45-4.25,1.21-4.49-1.22C586,384.13,588.3,382.66,590.46,382.11Z" transform="translate(-387.28 -359.96)"/><path class="cls-1" d="M636.2,387.64a12.68,12.68,0,0,0-3.69-.14c-2.29-.06-4.62.49-4.81-3.2-.11-2.1-2.26-2.71-4.25-2.3-2.5.52-3.51,2.3-3.51,4.72,0,5.8-.3,11.61.08,17.39.26,4-2,3.6-4.55,3.67-2.82.07-4.61-.1-4.47-3.85.3-8.1,0-16.23.14-24.34,0-1.7-1.11-4.59,2.33-4.21,2.51.28,6.54-2.22,6.71,3.11a7.28,7.28,0,0,1-4.32-1.67c-1.49-1.15-3.3,1-3.37,3.1-.29,7.78-.21,15.56,0,23.33a2.73,2.73,0,0,0,3.16,3c2.14-.09,2.77-1.54,2.84-3.36.17-4.64,0-9.28.1-13.91a10.3,10.3,0,0,1,1.07-5.29c1.68-2.79,6-4.13,7.57-1.73C629.46,385.49,632.94,386.25,636.2,387.64Z" transform="translate(-387.28 -359.96)"/><path class="cls-1" d="M636.89,381c-1.83.31-2.52-1.33-3.65-2.18-1.79-1.36-3.88-2.48-6-1.93-2.35.62-4.55,1.64-6.84,1.63C626.85,373.33,632.59,374.27,636.89,381Z" transform="translate(-387.28 -359.96)"/><path class="cls-2" d="M636.89,381v7a3.4,3.4,0,0,0-.65-.29l0,0a12.68,12.68,0,0,0-3.69-.14c-2.29-.06-4.62.49-4.81-3.2-.11-2.1-2.26-2.71-4.25-2.3-2.5.52-3.51,2.3-3.51,4.72,0,5.8-.3,11.61.08,17.39.26,4-2,3.6-4.55,3.67-2.82.07-4.61-.1-4.47-3.85.3-8.1,0-16.23.14-24.34,0-1.7-1.11-4.59,2.33-4.21,2.51.28,6.54-2.22,6.71,3.11a1.15,1.15,0,0,1,0,.19c.08-.06.15-.13.23-.18C626.85,373.33,632.59,374.27,636.89,381Z" transform="translate(-387.28 -359.96)"/><path class="cls-3" d="M397.69,405.37c0,1.92-1,1.94-4.43,2a14.38,14.38,0,0,0-2.93.17l-3.05.35v-6q.57-.14,1.14-.24a21.53,21.53,0,0,1,8.86.23A26.93,26.93,0,0,1,397.69,405.37Z" transform="translate(-387.28 -359.96)"/><path class="cls-4" d="M397.28,401.9h-10v-1C390.55,401.92,394.07,400.29,397.28,401.9Z" transform="translate(-387.28 -359.96)"/><path class="cls-2" d="M479.9,402.92c.13-13.28,0-26.57.15-39.85.06-4.12-2.6-2.94-4.65-3s-4.44-.92-4.25,2.85c.27,5.24.07,10.5.07,16-8.39-4.84-16.81-4.24-21.6,1.28-5.05,5.84-5.17,17-.24,22.65s13.51,6.47,21.6,1.67c.54,5.14,4.43,3.2,7.11,3.11C481.42,407.5,479.88,404.54,479.9,402.92Zm-17.08-2c-4.85-.08-8.39-3.87-8.47-9.08s3.67-9.59,8.52-9.68,8.57,4,8.57,9.52C471.44,397.35,468,401,462.82,400.91Z" transform="translate(-387.28 -359.96)"/><path class="cls-2" d="M607.65,398c-2-1.11-4.5-4.3-7.43-.08-3.19,4.59-10.88,3.83-13.54-.87-1.22-2.15-1.82-4.16,2-4,2.65.13,5.31,0,8,0a25.24,25.24,0,0,0,3.48,0c2.51-.34,6.12,1.43,7.33-1.11,1.48-3.1.49-6.88-1.38-10a13.44,13.44,0,0,0-3.29-3.64c-6.55-5-17.78-3.4-22.82,3.2-5.18,6.79-3.79,17.54,2.93,22.78s19,4.41,23.62-1.72C607.4,401.44,610.41,399.59,607.65,398Zm-17.19-15.91a11,11,0,0,1,4.42-.11c2.22.39,4.49,1.57,4.21,4.06s-2.86,1.15-4.43,1.46a12.71,12.71,0,0,1-2.47,0,5.69,5.69,0,0,1-1.49,0c-1.55-.45-4.25,1.21-4.49-1.22C586,384.13,588.3,382.66,590.46,382.11Z" transform="translate(-387.28 -359.96)"/><path class="cls-2" d="M576.2,403.76c0,2.27.21,4.16-3.21,4-7-.25-14,0-20.93-.13-1.64,0-4.3,1.15-4.75-1.05-.53-2.52-1.26-5.44,1.24-7.88,5.1-4.95,10-10.12,15.51-15.77-4.75,0-9.13-.15-13.49.06-2.63.13-3.14-1.08-2.84-3.23.26-1.87-1.1-4.59,2.7-4.53,7.31.11,14.62,0,21.93.05,1.22,0,3.12-.57,3.28,1.26.23,2.68.9,5.4-1.6,7.84-5,4.87-9.6,10.1-14.67,15.49,4.45,0,9,.23,13.61-.07C576.36,399.61,576.23,401.43,576.2,403.76Z" transform="translate(-387.28 -359.96)"/><path class="cls-2" d="M504.61,399c-2.56,3.23-6.94,2.58-10.46.27-1.85-1.22-3.53-3.08-2.77-5.33.64-1.9,2.9-.76,4.4-.82a65.84,65.84,0,0,1,11.41.05c5.29.73,6.79-1.5,6.09-6.23-2.13-7.95-6.85-11.58-15-11.52-7.84.05-13.73,4.6-15.53,12-2,8.07,1.76,15.9,9,18.82s18.5,2.26,22.52-7.34C511.05,396.61,508.35,394.28,504.61,399Zm-9-16.78A10.85,10.85,0,0,1,500,382c2.55.24,4.77,1.82,4.58,4.26s-2.92.94-4.49,1.31a11.21,11.21,0,0,1-2.46,0,5.61,5.61,0,0,1-1.48,0c-1.58-.49-4.28,1.24-4.64-1S493.6,382.92,495.64,382.23Z" transform="translate(-387.28 -359.96)"/><path class="cls-2" d="M545.31,398c-2.39-1.2-4.89-3.79-7.88.36-3.37,4.67-11.54,2.94-13.56-2.25-.82-2.12-.52-3.05,2-3,4.16.1,8.31,0,12.47,0,7.53,0,9.23-2.76,6.09-9.87a12.21,12.21,0,0,0-8.92-7.22c-9.67-2.25-16.43,1.36-20.56,10.93a27.76,27.76,0,0,0,1,12c.9,1.18,1.72,2.44,2.72,3.54,6.59,7.25,21,7,26.09-.48C545.43,400.9,547.67,399.15,545.31,398ZM527.44,382.4a8.39,8.39,0,0,1,5.3-.41c2.26.48,4.34,1.86,4.12,4.16-.25,2.58-2.86,1-4.38,1.37a8,8,0,0,1-2,0,14.29,14.29,0,0,1-2.45,0c-1.5-.26-4,1-4.28-1S525.58,383.25,527.44,382.4Z" transform="translate(-387.28 -359.96)"/><path class="cls-5" d="M410.34,388.93a7.59,7.59,0,0,0-6.11,1.08c-2.37.48-4,.45-4.06-2.88s1.9-3.09,4.1-3.12C411.66,383.89,411.66,383.86,410.34,388.93Z" transform="translate(-387.28 -359.96)"/><path class="cls-6" d="M436.77,405.31h0a3.62,3.62,0,0,1-.51,1.69c-2.86,1.47-5.86.57-8.81.49a5,5,0,0,0-.85-5.68c2.22-.93,4.44-.62,6.67-.08C434.39,403,436.76,403.47,436.77,405.31Z" transform="translate(-387.28 -359.96)"/><path class="cls-7" d="M410.32,407.12c-3.3.94-6.58,1.35-9.82-.21,1.38-1.65,2.13-3.32.18-5.1a17.26,17.26,0,0,1,9.35,0C408.61,403.66,408.93,405.42,410.32,407.12Z" transform="translate(-387.28 -359.96)"/><path class="cls-8" d="M435.38,389.84c-2.84.15-7.13,3.25-9.08-1.9,3-2,6.79-1.88,9.91-3.58C437.27,386.48,437.94,389.71,435.38,389.84Z" transform="translate(-387.28 -359.96)"/><path class="cls-9" d="M436.21,384.36c-2.43,3.6-6.22,3.45-9.91,3.58-.57-2.64-.17-4.4,3.21-4C431.73,384.26,434,384.25,436.21,384.36Z" transform="translate(-387.28 -359.96)"/><path class="cls-10" d="M436.22,398.6c-2.41-1.37-6.08-.16-7.47-3.63,0,0,0,0,0,0s0-.17-.05-.25a1.78,1.78,0,0,1,.52-1.63c1-.06,1.92-.17,2.88-.18C437.55,392.84,437.61,392.94,436.22,398.6Z" transform="translate(-387.28 -359.96)"/><path class="cls-11" d="M403.31,398.8c-3.19.87-3.07-1.17-3.05-3.32,0-4.27,3.08-2.18,5-2.45C406.51,395.6,405.49,397.39,403.31,398.8Z" transform="translate(-387.28 -359.96)"/><path class="cls-12" d="M407.26,398.8h-3.95c.65-1.92,1.3-3.85,2-5.77l4,0C410.61,395.66,408.84,397.2,407.26,398.8Z" transform="translate(-387.28 -359.96)"/><path class="cls-13" d="M410.32,407.12c-1.69-.21-3.13-.53-3.08-2.8.05-2,1.23-2.38,2.79-2.51C411.58,403.5,411.19,405.3,410.32,407.12Z" transform="translate(-387.28 -359.96)"/><path class="cls-14" d="M431.18,380.75v0c-.07.18-.16.38-.26.58a20.55,20.55,0,0,1-3.23.09h0a3.14,3.14,0,0,1-1.27-.52v-4.88a1.39,1.39,0,0,1,1.13-.48,3,3,0,0,1,1,.24c.18.12.36.24.53.37a10.09,10.09,0,0,1,.88.66C431.07,377.83,431.82,379,431.18,380.75Z" transform="translate(-387.28 -359.96)"/><path class="cls-15" d="M436.22,398.6a14.26,14.26,0,0,1-6,.2c-1.56-.83-2.6-1.95-2.16-3.89l.06-.05.08-.05a.73.73,0,0,1,.52-.13.86.86,0,0,1,.53.25c1.74,1.09,3.28,2.53,5.72,1.75C436.5,396.19,436,397.79,436.22,398.6Z" transform="translate(-387.28 -359.96)"/><path class="cls-16" d="M410.71,398.05c-.4,1.52-2.19.86-3.45.75l2-5.75C411.87,394.08,411.15,396.37,410.71,398.05Z" transform="translate(-387.28 -359.96)"/><path class="cls-17" d="M427.45,407.5c-2.31-1.59-1.25-3.68-.85-5.68C430.09,403.58,430.35,405.34,427.45,407.5Z" transform="translate(-387.28 -359.96)"/><path class="cls-18" d="M403.8,403.2a3.57,3.57,0,0,1-3.3,3.71,9,9,0,0,1,.18-5.1C401.8,402.2,403.87,401.27,403.8,403.2Z" transform="translate(-387.28 -359.96)"/><path class="cls-19" d="M420.23,398.8a1.41,1.41,0,0,1-.34-1.66,5,5,0,0,1,.4-.8v0a4.26,4.26,0,0,0,.93-1.46,3.18,3.18,0,0,1,.45-.71c.39-.43.94-.61,1.94-.17C424.08,396.7,425,399.75,420.23,398.8Z" transform="translate(-387.28 -359.96)"/><path class="cls-20" d="M410.34,388.93c-1.67,2.44-4,.92-6.11,1.08C406,388.36,407.62,385.43,410.34,388.93Z" transform="translate(-387.28 -359.96)"/><path class="cls-4" d="M390.33,407.54c.75-.22,1.55-.74,2.25-.62,4.16.67,5.1-1.52,4.7-5C399.22,407.9,398.79,408.25,390.33,407.54Z" transform="translate(-387.28 -359.96)"/><path class="cls-21" d="M420.3,396.32v0c-.12.27-.26.53-.4.8a6.32,6.32,0,0,0-.66,1.66h-2c-1.73-2.28-.86-4.1,1-5.75h2A3,3,0,0,1,420.3,396.32Z" transform="translate(-387.28 -359.96)"/><path class="cls-22" d="M436.77,405.31h0c-.14.49-.3,1-.45,1.48.67-2.64-3.22-2.7-3.05-5.06C437.55,401.17,437.41,403.1,436.77,405.31Z" transform="translate(-387.28 -359.96)"/><path class="cls-23" d="M417.23,398.8h-2a4.61,4.61,0,0,1-.51-1.22,3.24,3.24,0,0,1-.08-1.11,3.53,3.53,0,0,1,.13-.78,6.34,6.34,0,0,1,.82-1.73c.2-.3.41-.61.64-.91h2C417.88,395,416.9,396.77,417.23,398.8Z" transform="translate(-387.28 -359.96)"/><path class="cls-24" d="M436.38,381.13h0c-2.92.81-5.82,1.26-8.7.31h0a11.31,11.31,0,0,1-1.27-.52l4.74-.15,0,0c1.24-1.1,2.68-.91,4.12-.56a2.29,2.29,0,0,1,.5.3.67.67,0,0,1,.14.11,2.12,2.12,0,0,1,.42.51Z" transform="translate(-387.28 -359.96)"/><path class="cls-25" d="M423.28,407.07c-1.6,1.28-3.36.56-5.08.43h0a2.85,2.85,0,0,1-.54-.61,2.65,2.65,0,0,1-.23-.48.75.75,0,0,1-.06-.13c-.05-.24-.1-.47-.13-.7a4.65,4.65,0,0,1,0-1.44,1.42,1.42,0,0,1,0-.2,2.94,2.94,0,0,1,.33-1,3.63,3.63,0,0,1,.67-.9h1a3.15,3.15,0,0,1,1,1.7,8.78,8.78,0,0,0,.49,1.39l.29.23.22.16a2.61,2.61,0,0,0,.28.17l.1.06.61.26.39.19A1.43,1.43,0,0,1,423.28,407.07Z" transform="translate(-387.28 -359.96)"/><path class="cls-26" d="M423.28,407.07l-1.06-.21a5.46,5.46,0,0,1-.64-1l-.07-.16a3.08,3.08,0,0,1-.28-1.16v-.3a3.13,3.13,0,0,1,.34-1.26,4.74,4.74,0,0,1,.66-1C425.57,403.08,423.79,405.21,423.28,407.07Z" transform="translate(-387.28 -359.96)"/><path class="cls-24" d="M436.39,375.83l-.45.52-.12.14,0,0a7.12,7.12,0,0,1-5.87.33,12.69,12.69,0,0,1-1.65-.67l-1.86-.12a10.92,10.92,0,0,1,1.13-.48C430.46,374.55,433.42,375,436.39,375.83Z" transform="translate(-387.28 -359.96)"/><path class="cls-27" d="M416.33,405.52a4.07,4.07,0,0,1-1.1,2h-1c-1.11-1.73-.06-3.73-.69-5.52.86-1.13,1.73-.78,2.62,0l.09.54A7.8,7.8,0,0,1,416.33,405.52Z" transform="translate(-387.28 -359.96)"/><path class="cls-28" d="M414.73,397.58a8.4,8.4,0,0,0-.49,1.22c-1-2.15-3-4.47,1-5.74a3,3,0,0,1,.36.9C415.94,395.27,415.29,396.42,414.73,397.58Z" transform="translate(-387.28 -359.96)"/><path class="cls-29" d="M430.19,398.8h-2a9.4,9.4,0,0,1-1.88-2.86c0-.66,0-1.32,0-2,1-.43,1.5,0,1.84.85l.05.12Z" transform="translate(-387.28 -359.96)"/><path class="cls-30" d="M421.22,396.92a2,2,0,0,0-1,1.88h-1c-.34-2,.64-3.83,1-5.75h1a3.93,3.93,0,0,1,.45,1.1A3.69,3.69,0,0,1,421.22,396.92Z" transform="translate(-387.28 -359.96)"/><path class="cls-31" d="M418.2,407.5h-3c.31-1.86-.75-3.94.95-5.56l0,0a2.67,2.67,0,0,1,1,2.18l0,.5v.06a5,5,0,0,0,.22,1.23,1.1,1.1,0,0,0,.09.14,4.71,4.71,0,0,0,.64.83C418.2,407.1,418.2,407.3,418.2,407.5Z" transform="translate(-387.28 -359.96)"/><path class="cls-32" d="M415.24,398.8h-1c.13-.78.27-1.56.41-2.33,0-.26.08-.52.13-.78.15-.88.3-1.75.46-2.63h1C416.58,395.09,415.6,396.89,415.24,398.8Z" transform="translate(-387.28 -359.96)"/><path class="cls-33" d="M423.62,394c-1.79.18-1,2.41-2.4,2.94,0-.69,0-1.37,0-2.06v-1.81C422.16,393,423.37,392.26,423.62,394Z" transform="translate(-387.28 -359.96)"/><path class="cls-34" d="M414.25,407.5c-2.09-1.61-.94-3.62-.69-5.52C414.81,403.69,414,405.66,414.25,407.5Z" transform="translate(-387.28 -359.96)"/><path class="cls-35" d="M428.22,398.8c-2.87.53-2-1.44-1.88-2.86A3,3,0,0,1,428.22,398.8Z" transform="translate(-387.28 -359.96)"/><path class="cls-24" d="M436.38,381.13l0,0a5.25,5.25,0,0,1-.42-.4l-.14-.22a3.44,3.44,0,0,1,0-4c.05-.08.1-.17.16-.25l.45-.43A5,5,0,0,1,436.38,381.13Z" transform="translate(-387.28 -359.96)"/><path class="cls-36" d="M417.54,406.07a2.79,2.79,0,0,1-.12.34,4.17,4.17,0,0,1-.19.44,2.5,2.5,0,0,1-.9-1.33,12.83,12.83,0,0,1-.06-3,3,3,0,0,0,0-.52l1,.11a5.45,5.45,0,0,1,.33.9A5.13,5.13,0,0,1,417.54,406.07Z" transform="translate(-387.28 -359.96)"/><path class="cls-37" d="M418.24,402.07l-.06,4.83h-.53l-.42,0v-2.21c0-.23,0-.46,0-.7v-1.87Z" transform="translate(-387.28 -359.96)"/><path class="cls-38" d="M421,405.39a4.78,4.78,0,0,1-.77,1.43c-1.7-1.29-.75-3.15-1-4.75h1A3.43,3.43,0,0,1,421,405.39Z" transform="translate(-387.28 -359.96)"/><path class="cls-39" d="M421.61,405.78a.17.17,0,0,1,0,.1,5.49,5.49,0,0,1-.35,1h-.5l-.49,0c0-1,0-2,0-3.05v-1.7h1a5.81,5.81,0,0,1,.34.93A5.05,5.05,0,0,1,421.61,405.78Z" transform="translate(-387.28 -359.96)"/><path class="cls-40" d="M422.23,402c0,1.35,0,2.69,0,4v.82l-.49,0-.5,0v-4.79Z" transform="translate(-387.28 -359.96)"/><path class="cls-41" d="M429.22,394.93h-1l-.13-.07-1.76-.9c.46-1.91,1.85-.84,2.88-.91C429.21,393.68,429.22,394.31,429.22,394.93Z" transform="translate(-387.28 -359.96)"/><path class="cls-42" d="M435.94,376.26v4.45l-4.8.07-2.88-4.61Z" transform="translate(-387.28 -359.96)"/></svg>