<svg width="120" height="74" viewBox="0 0 120 74" fill="none" xmlns="http://www.w3.org/2000/svg">
<g id="deezer-colors" clip-path="url(#clip0)">
<g id="A">
<path id="A4" d="M24.5598 0H0V15.9234H24.5598V0Z" fill="#FED0CD"/>
<path id="A3" d="M24.5598 19.367H0V35.2904H24.5598V19.367Z" fill="#F87D76"/>
<path id="A2" d="M24.5598 38.7096H0V54.633H24.5598V38.7096Z" fill="#E2372C"/>
<path id="A1" d="M24.5598 58.0766H0V74H24.5598V58.0766Z" fill="#F78316"/>
</g>
<g id="B">
<path id="B4" d="M56.3063 0H31.7464V15.9234H56.3063V0Z" fill="#FFDA85"/>
<path id="B3" d="M56.1197 19.367H31.5598V35.2904H56.1197V19.367Z" fill="#F0B324"/>
<path id="B2" d="M56.1197 38.7096H31.5598V54.633H56.1197V38.7096Z" fill="#EA6033"/>
<path id="B1" d="M56.1197 58.0766H31.5598V74H56.1197V58.0766Z" fill="#C8325B"/>
</g>
<g id="C">
<path id="C4" d="M88.2392 0H63.6794V15.9234H88.2392V0Z" fill="#ECC7E3"/>
<path id="C3" d="M88.2392 19.367H63.6794V35.2904H88.2392V19.367Z" fill="#CB82B9"/>
<path id="C2" d="M87.866 38.7096H63.3062V54.633H87.866V38.7096Z" fill="#913F7D"/>
<path id="C1" d="M87.866 58.0766H63.3062V74H87.866V58.0766Z" fill="#57308E"/>
</g>
<g id="D">
<path id="D4" d="M119.799 0H95.2392V15.9234H119.799V0Z" fill="#45B878"/>
<path id="D3" d="M119.799 19.367H95.2392V35.2904H119.799V19.367Z" fill="#1BB075"/>
<path id="D2" d="M119.799 38.7096H95.2392V54.633H119.799V38.7096Z" fill="#1078B7"/>
<path id="D1" d="M119.799 58.0766H95.2392V74H119.799V58.0766Z" fill="#146FD0"/>
</g>
</g>
<defs>
<clipPath id="clip0">
<rect width="119.799" height="74" fill="white"/>
</clipPath>
</defs>
</svg>
